External Loads File
version=1
nRows=93
nColumns=13
Range=5.000000e-03-10 seconds
endheader
time 	forceRightX 	forceRightY 	forceRightZ 	pointRightX 	pointRightY 	pointRightZ 	forceLeftX 	forceLeftY 	forceLeftZ 	pointLeftX 	pointLeftY 	pointLeftZ 		
2.505000 90.040602 965.751886 -0.000000 0.371440 0.208395 -0.147059 -24.729609 -94.973450 -0.000000 0.148233 0.446680 -0.376926
2.510000 60.267757 951.952579 -0.000000 0.368231 0.203678 -0.147043 -25.484111 -97.728648 -0.000000 0.153218 0.451717 -0.377206
2.515000 101.893752 929.587599 -0.000000 0.364868 0.199178 -0.146974 -33.568390 -98.491614 -0.000000 0.157789 0.456575 -0.377178
2.520000 73.215040 910.660466 -0.000000 0.361454 0.194627 -0.146942 -34.225148 -101.665668 -0.000000 0.162444 0.461349 -0.377174
2.525000 119.188908 880.988139 -0.000000 0.357877 0.190584 -0.146885 -43.300885 -101.760347 -0.000000 0.167685 0.466157 -0.377734
2.530000 93.374769 856.268194 -0.000000 0.354216 0.186778 -0.146888 -44.189768 -105.011915 -0.000000 0.172828 0.470487 -0.377240
2.535000 131.366989 820.187231 -0.000000 0.350464 0.182738 -0.146854 -52.999081 -104.530057 -0.000000 0.177585 0.474818 -0.377554
2.540000 107.440357 789.757144 -0.000000 0.346626 0.179236 -0.146847 -54.010887 -107.434108 -0.000000 0.182862 0.478854 -0.377626
2.545000 149.795001 745.838642 -0.000000 0.342631 0.176002 -0.146843 -64.155169 -104.758824 -0.000000 0.188243 0.482549 -0.377685
2.550000 125.678920 711.057668 -0.000000 0.338603 0.172928 -0.146799 -65.019060 -106.386921 -0.000000 0.193794 0.485918 -0.377796
2.555000 151.605831 664.426889 -0.000000 0.334188 0.169973 -0.146488 -73.209777 -101.851050 -0.000000 0.199712 0.489087 -0.377549
2.560000 130.215120 626.042193 -0.000000 0.329865 0.167278 -0.146451 -73.873279 -100.535392 -0.000000 0.205226 0.492294 -0.377648
2.565000 148.731430 577.419961 -0.000000 0.325503 0.164785 -0.146380 -80.448284 -92.202988 -0.000000 0.210763 0.495354 -0.377664
2.570000 130.328838 536.717395 -0.000000 0.320928 0.162561 -0.146316 -80.583483 -86.277334 -0.000000 0.216369 0.498200 -0.377637
2.575000 157.081393 482.983484 -0.000000 0.316173 0.160560 -0.146251 -87.100326 -70.119866 -0.000000 0.222010 0.500768 -0.377638
2.580000 139.552656 441.737644 -0.000000 0.311200 0.158759 -0.146131 -86.232327 -58.123784 -0.000000 0.227777 0.503172 -0.377645
2.585000 153.664370 389.468609 -0.000000 0.305963 0.157233 -0.145994 -88.414885 -36.227505 -0.000000 0.233123 0.505249 -0.377783
2.590000 138.729297 347.772779 -0.000000 0.300544 0.155954 -0.145848 -86.708573 -17.149051 -0.000000 0.238889 0.506673 -0.377686
2.595000 151.049050 294.209103 -0.000000 0.294877 0.154886 -0.145744 -84.559556 12.407906 -0.000000 0.244248 0.508299 -0.378288
2.600000 137.222652 253.099119 -0.000000 0.289062 0.154222 -0.145723 -81.576510 37.896141 -0.000000 0.249728 0.509112 -0.378253
2.605000 144.999149 199.336877 -0.000000 0.282985 0.153810 -0.145780 -72.679546 73.421602 -0.000000 0.255118 0.509837 -0.378579
2.610000 132.682489 159.320977 -0.000000 0.276722 0.153736 -0.145769 -68.152468 104.483696 -0.000000 0.260312 0.510248 -0.378741
2.615000 131.641641 110.338761 -0.000000 0.270204 0.153951 -0.145791 -53.935425 142.752757 -0.000000 0.265332 0.510034 -0.378908
2.620000 121.511769 73.118650 -0.000000 0.263484 0.154464 -0.145850 -49.256037 178.823715 -0.000000 0.270037 0.509530 -0.379233
2.625000 116.892832 27.739841 -0.000000 0.256604 0.155321 -0.145816 -27.471246 220.729155 -0.000000 0.274590 0.508719 -0.379595
2.630000 109.025527 -4.154517 -0.000000 0.249678 0.156407 -0.145582 -24.286097 261.605151 -0.000000 0.278983 0.507282 -0.380024
2.635000 100.087501 -42.195651 -0.000000 0.242690 0.157735 -0.145399 3.821265 305.654973 -0.000000 0.283392 0.505193 -0.380425
2.640000 94.377779 -66.220472 -0.000000 0.235630 0.159381 -0.145472 3.386363 350.486081 -0.000000 0.287805 0.503149 -0.380786
2.645000 84.127473 -92.090761 -0.000000 0.228943 0.161288 -0.145524 26.935654 395.423069 -0.000000 0.292261 0.500881 -0.381113
2.650000 80.603180 -106.706268 -0.000000 0.222454 0.163450 -0.145636 20.269289 441.795488 -0.000000 0.296729 0.498189 -0.381420
2.655000 73.598851 -119.829669 -0.000000 0.216261 0.165807 -0.145753 27.876074 486.538796 -0.000000 0.301228 0.495247 -0.381688
2.660000 72.295978 -125.653395 -0.000000 0.210209 0.168483 -0.146020 11.292813 530.622276 -0.000000 0.305783 0.491979 -0.382043
2.665000 59.085015 -134.649836 -0.000000 0.204332 0.171397 -0.146315 44.870131 570.028051 -0.000000 0.310468 0.488512 -0.382200
2.670000 59.646770 -134.899307 -0.000000 0.198561 0.174698 -0.146540 20.435529 609.600910 -0.000000 0.315164 0.485060 -0.382063
2.675000 49.830087 -138.295853 -0.000000 0.192873 0.178133 -0.146766 43.922399 643.353229 -0.000000 0.319899 0.481557 -0.382085
2.680000 52.192067 -136.419701 -0.000000 0.187322 0.181931 -0.146950 11.752396 676.282078 -0.000000 0.324630 0.477583 -0.382162
2.685000 41.555249 -138.912589 -0.000000 0.181939 0.185991 -0.147002 45.178722 703.138968 -0.000000 0.329326 0.472376 -0.382203
2.690000 45.193639 -136.628372 -0.000000 0.176651 0.190438 -0.147209 7.243939 729.606422 -0.000000 0.334006 0.467690 -0.382252
2.695000 38.177448 -137.576144 -0.000000 0.171462 0.195044 -0.147425 26.860894 751.347996 -0.000000 0.338645 0.462722 -0.382402
2.700000 42.875309 -134.836671 -0.000000 0.166454 0.199916 -0.148215 -16.163652 771.305763 -0.000000 0.343269 0.457481 -0.382557
2.705000 36.752826 -135.034865 -0.000000 0.161515 0.205102 -0.148467 5.309130 788.876616 -0.000000 0.347792 0.452069 -0.382682
2.710000 42.641445 -131.350173 -0.000000 0.156717 0.210462 -0.148796 -39.239661 803.405545 -0.000000 0.352244 0.446480 -0.382810
2.715000 38.136093 -130.509094 -0.000000 0.151991 0.216177 -0.149149 -14.167492 818.007555 -0.000000 0.356556 0.440663 -0.382883
2.720000 46.308082 -125.359408 -0.000000 0.147312 0.222073 -0.149455 -61.203001 828.146043 -0.000000 0.360603 0.434680 -0.382803
2.725000 44.469742 -123.479664 -0.000000 0.142712 0.228031 -0.149573 -33.251510 840.679638 -0.000000 0.365163 0.428417 -0.383232
2.730000 54.774392 -116.728001 -0.000000 0.138273 0.234184 -0.149652 -78.433534 847.396843 -0.000000 0.369090 0.422135 -0.383387
2.735000 56.418990 -113.714134 -0.000000 0.134026 0.240518 -0.149675 -50.692904 858.033360 -0.000000 0.372906 0.415644 -0.383484
2.740000 68.961882 -104.877144 -0.000000 0.129977 0.246993 -0.149613 -95.914387 861.689192 -0.000000 0.376437 0.408987 -0.383551
2.745000 81.731660 -94.560452 -0.000000 0.126109 0.253559 -0.149578 -140.052887 862.393392 -0.000000 0.379812 0.402136 -0.383653
2.750000 87.127319 -90.458573 -0.000000 0.122550 0.260374 -0.149623 -111.515623 872.725501 -0.000000 0.382925 0.395039 -0.383758
2.755000 92.863594 -87.168782 -0.000000 0.119235 0.267350 -0.149586 -79.175625 882.016789 -0.000000 0.385853 0.387938 -0.383928
2.760000 105.388706 -76.134385 -0.000000 0.116249 0.274453 -0.149653 -121.013156 882.687395 -0.000000 0.388462 0.380736 -0.383911
2.765000 109.984618 -74.785790 -0.000000 0.113581 0.281729 -0.149748 -84.589594 891.893756 -0.000000 0.391034 0.373401 -0.383561
2.770000 119.341175 -64.681451 -0.000000 0.111406 0.289139 -0.149806 -124.470414 891.703888 -0.000000 0.393057 0.365994 -0.383935
2.775000 120.537308 -66.705993 -0.000000 0.109738 0.296613 -0.150003 -79.699040 900.760532 -0.000000 0.394986 0.358521 -0.384067
2.780000 125.778114 -58.720803 -0.000000 0.108349 0.304194 -0.150081 -117.919187 900.006257 -0.000000 0.396585 0.351608 -0.384055
2.785000 124.357860 -61.703827 -0.000000 0.107352 0.311915 -0.150204 -86.551235 906.520336 -0.000000 0.397985 0.343316 -0.384087
2.790000 125.689175 -56.708594 -0.000000 0.106790 0.319653 -0.150495 -124.094443 904.730925 -0.000000 0.399095 0.335677 -0.384016
2.795000 120.320410 -63.765659 -0.000000 0.106649 0.327536 -0.150512 -84.924059 911.594169 -0.000000 0.399974 0.328612 -0.383944
2.800000 118.807785 -61.752158 -0.000000 0.106886 0.335417 -0.150427 -124.702315 909.378546 -0.000000 0.400524 0.320998 -0.383815
2.805000 116.097470 -61.410105 -0.000000 0.107529 0.343278 -0.150528 -163.770730 905.794869 -0.000000 0.400818 0.313217 -0.383714
2.810000 106.968783 -71.722378 -0.000000 0.108472 0.351048 -0.150606 -126.509419 914.811458 -0.000000 0.400892 0.305533 -0.383714
2.815000 96.152758 -82.194114 -0.000000 0.109776 0.358877 -0.150585 -87.076569 923.025771 -0.000000 0.400830 0.297829 -0.384079
2.820000 91.679900 -84.399692 -0.000000 0.111422 0.366630 -0.150503 -128.567520 922.402043 -0.000000 0.399808 0.290089 -0.383340
2.825000 77.720941 -95.579664 -0.000000 0.113420 0.374330 -0.150161 -75.654941 932.955019 -0.000000 0.398804 0.281905 -0.383257
2.830000 72.751235 -98.192222 -0.000000 0.115698 0.382034 -0.150121 -117.450451 933.701876 -0.000000 0.397562 0.274324 -0.383152
2.835000 58.172782 -106.763929 -0.000000 0.118214 0.389728 -0.150019 -72.382322 943.445396 -0.000000 0.395952 0.266792 -0.383069
2.840000 52.882043 -109.048179 -0.000000 0.121114 0.397209 -0.150044 -112.728195 944.469647 -0.000000 0.394048 0.259445 -0.382994
2.845000 38.576226 -114.558997 -0.000000 0.124348 0.404820 -0.150019 -76.200656 952.459029 -0.000000 0.391749 0.252168 -0.382905
2.850000 33.279133 -115.798571 -0.000000 0.127833 0.411989 -0.150043 -114.584608 951.793102 -0.000000 0.389204 0.245007 -0.382889
2.855000 18.092571 -118.500614 -0.000000 0.131697 0.419091 -0.150324 -69.900939 957.478921 -0.000000 0.386276 0.238054 -0.382821
2.860000 13.044255 -118.194241 -0.000000 0.135868 0.426038 -0.150563 -104.123757 953.264141 -0.000000 0.383109 0.231192 -0.382802
2.865000 -3.695012 -117.402780 -0.000000 0.140156 0.432748 -0.150616 -39.276261 953.995687 -0.000000 0.379607 0.224627 -0.382773
2.870000 -7.747551 -115.117561 -0.000000 0.144661 0.439440 -0.150835 -71.790635 944.448542 -0.000000 0.375853 0.218269 -0.382735
2.875000 -21.204260 -110.525980 -0.000000 0.149440 0.445892 -0.150950 -20.221318 935.508334 -0.000000 0.371783 0.212145 -0.382697
2.880000 -24.455466 -106.107725 -0.000000 0.154112 0.452237 -0.151288 -47.627510 919.098580 -0.000000 0.367409 0.206358 -0.382692
2.885000 -36.070966 -98.010010 -0.000000 0.159659 0.458283 -0.151417 5.508065 901.024096 -0.000000 0.362849 0.200728 -0.382719
2.890000 -38.275972 -91.572244 -0.000000 0.164932 0.464015 -0.151907 -20.188795 877.832777 -0.000000 0.358002 0.195401 -0.382736
2.895000 -49.093326 -79.467539 -0.000000 0.170778 0.469447 -0.152231 45.315187 850.540547 -0.000000 0.352973 0.190319 -0.382690
2.900000 -50.912013 -70.595125 -0.000000 0.176417 0.474615 -0.152299 22.305418 822.212990 -0.000000 0.347688 0.185564 -0.382644
2.905000 -58.351059 -55.352487 -0.000000 0.182409 0.479503 -0.152357 70.710456 787.631311 -0.000000 0.342197 0.180985 -0.382626
2.910000 -60.464604 -43.105268 -0.000000 0.188567 0.483970 -0.152474 48.419410 755.441415 -0.000000 0.336423 0.176928 -0.382582
2.915000 -65.933409 -23.014555 -0.000000 0.194813 0.488310 -0.152726 93.595720 715.387989 -0.000000 0.330491 0.173067 -0.382520
2.920000 -68.766810 -6.561669 -0.000000 0.201204 0.492187 -0.152896 72.366512 680.796033 -0.000000 0.324205 0.169620 -0.382465
2.925000 -71.166676 19.356852 -0.000000 0.207822 0.495916 -0.153056 121.017042 635.207881 -0.000000 0.317496 0.166433 -0.382076
2.930000 -74.388187 39.752238 -0.000000 0.214228 0.498420 -0.153123 101.414533 598.965615 -0.000000 0.310817 0.163656 -0.381925
2.935000 -73.221439 68.061310 -0.000000 0.220899 0.501756 -0.153278 132.931942 551.236745 -0.000000 0.303940 0.161187 -0.381787
2.940000 -76.719194 91.310837 -0.000000 0.227208 0.503761 -0.153360 117.452034 511.679971 -0.000000 0.296787 0.159184 -0.381668
2.945000 -68.655188 123.235682 -0.000000 0.233643 0.505574 -0.153320 154.345217 455.573198 -0.000000 0.289420 0.157442 -0.381521
2.950000 -71.566138 148.273226 -0.000000 0.240142 0.506961 -0.153279 141.511829 411.225074 -0.000000 0.281860 0.156286 -0.381272
2.955000 -61.676085 179.313385 -0.000000 0.246342 0.507749 -0.153008 160.072552 351.997840 -0.000000 0.274193 0.155446 -0.381133
2.960000 -65.918379 205.689084 -0.000000 0.252442 0.508048 -0.152693 148.098629 302.555635 -0.000000 0.266317 0.155209 -0.380849
2.965000 -45.462384 239.677554 -0.000000 0.258301 0.507898 -0.152199 166.351130 233.315077 -0.000000 0.258376 0.155351 -0.380638
